<svg width="48" height="48" viewBox="0 0 48 48" fill="none" xmlns="http://www.w3.org/2000/svg">
<path d="M22.25 44C21.2833 44 20.35 43.8 19.45 43.4C18.55 43 17.8 42.4167 17.2 41.65L6.35001 27.85L7.40001 26.7C7.86667 26.2 8.44167 25.8917 9.12501 25.775C9.80834 25.6583 10.45 25.7667 11.05 26.1L16 28.75V10.5C16 10.075 16.1447 9.71867 16.434 9.431C16.723 9.14367 17.0813 9 17.509 9C17.9363 9 18.2917 9.14367 18.575 9.431C18.8583 9.71867 19 10.075 19 10.5V33.75L11.8 29.9L19.6 39.8C19.9333 40.2 20.3293 40.5 20.788 40.7C21.2467 40.9 21.734 41 22.25 41H32.5C33.7667 41 34.8333 40.5667 35.7 39.7C36.5667 38.8333 37 37.7667 37 36.5V28C37 27.15 36.7125 26.4375 36.1375 25.8625C35.5625 25.2875 34.85 25 34 25H23V22H33.9825C35.6538 22 37.0747 22.5833 38.245 23.75C39.415 24.9167 40 26.3333 40 28V36.5C40 38.6 39.275 40.375 37.825 41.825C36.375 43.275 34.6 44 32.5 44H22.25ZM10.15 14.75C9.78101 14.125 9.49701 13.4502 9.29801 12.7255C9.09934 12.0008 9.00001 11.2548 9.00001 10.4875C9.00001 8.12917 9.82884 6.125 11.4865 4.475C13.1438 2.825 15.1483 2 17.5 2C19.8517 2 21.8562 2.829 23.5135 4.487C25.1712 6.145 26 8.15 26 10.502C26 11.2673 25.9007 12.011 25.702 12.733C25.503 13.455 25.219 14.1273 24.85 14.75L22.25 13.25C22.4833 12.85 22.6667 12.4167 22.8 11.95C22.9333 11.4833 23 10.992 23 10.476C23 8.95867 22.4647 7.66667 21.394 6.6C20.3233 5.53333 19.0233 5 17.494 5C15.9647 5 14.6667 5.53467 13.6 6.604C12.5333 7.67367 12 8.97233 12 10.5C12 11 12.0667 11.4833 12.2 11.95C12.3333 12.4167 12.5167 12.85 12.75 13.25L10.15 14.75Z" fill="#FBFBFB"/>
</svg>
